<svg width="16" height="16" viewBox="0 0 16 16" fill="none" xmlns="http://www.w3.org/2000/svg">
<path fill-rule="evenodd" clip-rule="evenodd" d="M1 3C1 2.44772 1.44772 2 2 2H14C14.5523 2 15 2.44772 15 3C15 3.55228 14.5523 4 14 4H2C1.44772 4 1 3.55228 1 3ZM4 8C4 7.44772 4.44772 7 5 7H14C14.5523 7 15 7.44772 15 8C15 8.55228 14.5523 9 14 9H5C4.44772 9 4 8.55228 4 8ZM8 12C7.44772 12 7 12.4477 7 13C7 13.5523 7.44772 14 8 14H14C14.5523 14 15 13.5523 15 13C15 12.4477 14.5523 12 14 12H8Z" fill="#171F46"/>
</svg>
